<svg id="eZgdA3VI9tk1" xmlns="http://www.w3.org/2000/svg" xmlns:xlink="http://www.w3.org/1999/xlink" viewBox="0 0 500 500" shape-rendering="geometricPrecision" text-rendering="geometricPrecision"><g style="mix-blend-mode:multiply" transform="matrix(1.240912 0 0 1.153814-60.619079-40.350696)"><g><ellipse rx="30.904" ry="30.904" transform="matrix(.9324-.3616 0.3616 0.9324 115.699458 297.596193)" fill="#2352bb"/><path d="M107.474,306.947c-3.561-.556-6.376-2.221-7.766-5.547c0,0,1.89.398,3.71-.114-3.869-1.764-5.967-4.347-6.209-8.155c1.317.929,3.422,1.1,3.422,1.1-3.641-3.186-3.773-7.159-2.215-10.656c8.601,8.807,16.9,8.242,16.9,8.242-.25-4.641,1.021-7.551,4.249-9.136c3.135-1.54,7.396-1.166,9.777,1.718c2.285.06,4.9-1.405,4.9-1.405s-.681,1.565-2.956,3.613c1.479.341,4.208-.621,4.208-.621s-1.136,1.873-3.81,3.58c.114,13.711-10.589,24.795-23.794,24.606-3.898-.056-8.638-1.771-12.021-3.854-.001,0,8.46.469,11.605-3.371Z" fill="#fff"/></g><g><path d="M387.108,232.182c-1.644-.257-2.944-1.026-3.586-2.561c0,0,.872.184,1.713-.053-1.786-.814-2.755-2.007-2.867-3.766.608.429,1.58.508,1.58.508-1.681-1.471-1.742-3.306-1.023-4.921c3.972,4.067,7.804,3.806,7.804,3.806-.115-2.143.472-3.487,1.962-4.219c1.448-.711,3.415-.538,4.514.793c1.055.028,2.263-.649,2.263-.649s-.314.723-1.365,1.668c.683.158,1.943-.287,1.943-.287s-.525.865-1.759,1.653c.053,6.331-4.889,11.449-10.987,11.362-1.8-.026-3.989-.818-5.551-1.78c0,.002,3.906.219,5.359-1.554Z" fill="#fff"/></g><g><circle r="30.904" transform="translate(194.32 191.094)" fill="#2352bb"/><g><path d="M212,199.032c0,4.724-3.83,8.554-8.554,8.554h-16.893c-4.724,0-8.554-3.83-8.554-8.554v-16.892c0-4.724,3.83-8.554,8.554-8.554h16.893c4.724,0,8.554,3.83,8.554,8.554v16.892Zm-4-16.755c0-2.591-2.1-4.691-4.691-4.691h-16.619c-2.591,0-4.691,2.1-4.691,4.691v16.619c0,2.591,2.1,4.691,4.691,4.691h16.619c2.591,0,4.691-2.1,4.691-4.691v-16.619Z" fill="#fff"/><path d="M205.354,181.302c0,1.295-1.05,2.345-2.345,2.345s-2.345-1.05-2.345-2.345s1.05-2.345,2.345-2.345c1.295-.001,2.345,1.049,2.345,2.345Z" fill="#fff"/><path d="M194.18,200.202c-4.945,0-8.967-4.023-8.967-8.967c0-4.945,4.023-8.967,8.967-8.967c4.945,0,8.967,4.023,8.967,8.967c0,4.945-4.023,8.967-8.967,8.967Zm0-14.072c-2.815,0-5.105,2.29-5.105,5.104c0,2.815,2.29,5.105,5.105,5.105s5.105-2.29,5.105-5.105c-.001-2.814-2.291-5.104-5.105-5.104Z" fill="#fff"/></g></g><g><g><path d="M331,267.368c0,4.539-3.679,8.218-8.218,8.218h-16.564c-4.539,0-8.218-3.679-8.218-8.218v-16.564c0-4.539,3.679-8.218,8.218-8.218h16.564c4.539,0,8.218,3.679,8.218,8.218v16.564Zm-4-16.275c0-2.489-2.018-4.507-4.507-4.507h-15.987c-2.489,0-4.507,2.018-4.507,4.507v15.987c0,2.489,2.018,4.507,4.507,4.507h15.987c2.489,0,4.507-2.018,4.507-4.507v-15.987Z" fill="#fff"/><path d="M324.282,250.333c0,1.244-1.009,2.253-2.253,2.253s-2.253-1.009-2.253-2.253c0-1.245,1.009-2.253,2.253-2.253c1.244-.001,2.253,1.008,2.253,2.253Z" fill="#fff"/><path d="M313.545,268.492c-4.751,0-8.616-3.865-8.616-8.616s3.865-8.616,8.616-8.616s8.616,3.865,8.616,8.616-3.865,8.616-8.616,8.616Zm0-13.52c-2.704,0-4.904,2.2-4.904,4.904s2.2,4.904,4.904,4.904s4.904-2.2,4.904-4.904-2.2-4.904-4.904-4.904Z" fill="#fff"/></g></g><g><ellipse rx="30.904" ry="30.904" transform="matrix(.1587-.9873 0.9873 0.1587 348.328725 216.102871)" fill="#2352bb"/><path d="M364.063,210.204c-.318-2.382-1.417-3.541-3.789-3.801-3.896-.427-7.796-.653-11.712-.623-4.09-.04-8.164.183-12.234.625-2.387.259-3.46,1.435-3.747,3.824-.545,4.522-.514,9.007.031,13.521.246,2.037,1.209,3.228,3.214,3.469c8.324.997,16.653.983,24.978-.001c1.892-.223,2.935-1.324,3.162-3.234.544-4.591.712-9.167.097-13.78Zm-18.622,12.083l-.001-10.712l8.048,5.294-8.047,5.418Z" fill="#f3f4f4"/></g><g><path d="M318.605,174.298c-.293-2.198-1.307-3.267-3.496-3.507-3.594-.394-7.192-.602-10.805-.575-3.774-.037-7.532.169-11.286.577-2.202.239-3.192,1.324-3.457,3.528-.502,4.172-.474,8.309.028,12.474.227,1.879,1.115,2.978,2.965,3.2c7.679.92,15.363.907,23.043,0c1.745-.206,2.707-1.221,2.917-2.983.504-4.237.659-8.458.091-12.714Zm-17.179,11.146l-.001-9.882l7.425,4.884-7.424,4.998Z" fill="#f3f4f4"/></g><g><ellipse rx="30.904" ry="30.904" transform="matrix(.9268-.3756 0.3756 0.9268 406.330348 267.576861)" fill="#2352bb"/><path d="M402.479,268.305l-5.376.005-.028-6.102l5.404-.041c-.742-10.299,3.09-12.084,10.196-12.07l3.411.009v5.954l-2.577.031c-.526.014-4.603-.278-3.8,5.994l5.221.031-.062,6.025-5.202.031.011,16.612h-7.158l-.04-16.479Z" fill="#fff"/></g><g><g><ellipse rx="21.508" ry="21.508" transform="matrix(.7071-.7071 0.7071 0.7071 267.166422 220.529162)" fill="#2352bb"/></g><g><path d="M277.435,229.14h-3.874c-1.348-9.013-7.52-15.145-16.657-16.357v-4.245c9.597.198,20.531,8.319,20.531,20.602Z" fill="#fefefe"/><path d="M266.551,229.14c-1.318-5.932-4.311-8.208-9.646-8.987v-4.134c6.83.719,12.462,4.793,13.661,13.122h-4.015v-.001Z" fill="#fdfefe"/><path d="M262.577,226.244c0,1.566-1.27,2.836-2.836,2.836s-2.836-1.27-2.836-2.836s1.27-2.836,2.836-2.836s2.836,1.27,2.836,2.836Z" fill="#fdfefe"/></g></g><g><g><g><ellipse rx="23.307" ry="23.307" transform="matrix(.7762-.6305 0.6305 0.7762 268.562524 291.162579)" fill="#2352bb"/></g></g><g><g><polygon points="281,283.673 281,282.586 257,282.586 257,284.06 268.668,291.131" fill="#fff"/><path d="M268.863,293.142c-.155.09-.265.136-.439.136-.173,0-.009-.046-.164-.136L257,286.364v13.222h24v-13.609l-12.137,7.165Z" fill="#fff"/></g></g></g><g><g><g><ellipse rx="23.307" ry="23.307" transform="matrix(.2321-.9727 0.9727 0.2321 365.63423 310.845243)" fill="#2352bb"/></g></g><path d="M377.845,313.804c1.513-9.999-5.658-15.558-13.848-14.818c0,0-5.16-2.96-9.424,1.234-3.256,4.046-.888,8.437-.888,8.437-.642,7.944,4.095,15.394,14.75,14.208c0,0,4.652,2.518,8.157-1.198c3.096-3.258,1.253-7.863,1.253-7.863Zm-4.805.946c-.165,1.404-.932,2.432-2.041,3.22-2.447,1.738-7.244,1.802-9.757.158-.727-.475-1.359-1.07-1.767-1.821-.612-1.126-1.188-2.41.321-3.246c1.421-.787,2.106.263,2.724,1.385c1.142,2.076,3.269,2.76,5.336,1.76.795-.384,1.516-.926,1.444-1.915-.063-.871-.689-1.401-1.5-1.639-1.318-.386-2.643-.757-3.98-1.07-.973-.228-1.891-.578-2.711-1.119-2.613-1.724-2.578-5.174.056-6.878c1.428-.924,3.042-1.158,5.148-1.169c1.984.084,4.33.409,5.671,2.789.508.902.61,1.976-.454,2.608-.996.592-1.892.279-2.514-.721-.104-.167-.203-.338-.319-.497-1.072-1.482-2.814-1.999-4.505-1.319-.623.25-1.224.589-1.295,1.343-.084.893.569,1.307,1.272,1.528c1.996.628,4.057,1.077,6.011,1.811c2.276.857,3.132,2.475,2.86,4.792Z" fill="#fdfefe"/></g><g><g><g><g><ellipse rx="23.307" ry="23.307" transform="matrix(.2275-.9738 0.9738 0.2275 148.338246 241.680047)" fill="#2352bb"/></g></g></g><path d="M155.927,245.658c-1,0-1.917.348-2.643.926l-8.756-4.759c.013-.135.021-.272.021-.411c0-.308-.034-.607-.097-.896l8.269-4.135c.779.897,1.925,1.466,3.206,1.466c2.346,0,4.249-1.902,4.249-4.249c0-2.346-1.902-4.249-4.249-4.249-2.346,0-4.249,1.902-4.249,4.249c0,.087.008.173.013.259l-8.641,4.32c-.741-.631-1.701-1.014-2.751-1.014-2.346,0-4.249,1.902-4.249,4.249c0,2.346,1.902,4.249,4.249,4.249c1.227,0,2.329-.523,3.104-1.355l8.405,4.568c-.083.33-.131.675-.131,1.031c0,2.346,1.902,4.249,4.249,4.249c2.346,0,4.249-1.902,4.249-4.249s-1.902-4.249-4.248-4.249Z" fill="#fff"/></g><g><circle r="10.909" transform="translate(187.685 242.485)" fill="#2352bb"/><path d="M184.788,245.789c-1.257-.196-2.251-.784-2.741-1.958c0,0,.667.141,1.31-.04-1.366-.623-2.106-1.535-2.192-2.879.465.328,1.208.388,1.208.388-1.285-1.125-1.332-2.527-.782-3.762c3.036,3.109,5.965,2.91,5.965,2.91-.088-1.638.36-2.665,1.5-3.225c1.107-.544,2.611-.412,3.451.606.806.021,1.729-.496,1.729-.496s-.24.552-1.044,1.275c.522.12,1.485-.219,1.485-.219s-.401.661-1.345,1.264c.04,4.84-3.738,8.752-8.399,8.686-1.376-.02-3.049-.625-4.243-1.36.002,0,2.988.166,4.098-1.19Z" fill="#fff"/></g><g><ellipse rx="10.909" ry="10.909" transform="matrix(.1596-.9872 0.9872 0.1596 302.746507 211.060969)" fill="#2352bb"/><path d="M308.31,209.001c-.112-.841-.5-1.25-1.338-1.342-1.375-.151-2.752-.23-4.134-.22-1.444-.014-2.882.064-4.319.221-.842.092-1.221.507-1.323,1.35-.192,1.596-.181,3.18.011,4.773.087.719.427,1.14,1.134,1.224c2.938.352,5.879.347,8.817,0c.668-.079,1.036-.467,1.116-1.142.194-1.62.254-3.235.036-4.864ZM302,213.267v-3.781l2.841,1.869L302,213.267Z" fill="#f3f4f4"/></g><g><circle r="8.776" transform="translate(247.846 258.97)" fill="#2352bb"/><path d="M246.755,259.173l-1.527.001-.008-1.733l1.535-.012c-.211-2.925.877-3.431,2.895-3.428l.969.003v1.691l-.732.009c-.149.004-1.307-.079-1.079,1.702l1.483.009-.018,1.711-1.477.009.003,4.717h-2.033l-.011-4.679Z" fill="#fff"/></g><g><circle r="6.776" transform="translate(308.846 158.97)" fill="#2352bb"/><path d="M308.004,159.127l-1.179.001-.006-1.338l1.185-.009c-.163-2.258.677-2.649,2.235-2.646l.748.002v1.305l-.565.007c-.115.003-1.009-.061-.833,1.314l1.145.007-.014,1.321-1.14.007.002,3.642h-1.569l-.009-3.613Z" fill="#fff"/></g><g><circle r="8.776" transform="translate(127.846 212.97)" fill="#2352bb"/><path d="M126.755,213.173l-1.527.001-.008-1.733l1.535-.012c-.211-2.924.877-3.431,2.895-3.427l.969.003v1.691l-.732.009c-.149.004-1.307-.079-1.079,1.702l1.483.009-.018,1.711-1.477.009.003,4.717h-2.033l-.011-4.68Z" fill="#fff"/></g><g><g><circle r="8.227" transform="translate(199.99 121.305)" fill="#2352bb"/></g><g><path d="M203.916,124.599h-1.482c-.516-3.448-2.877-5.793-6.372-6.257v-1.624c3.671.076,7.854,3.182,7.854,7.881Z" fill="#fefefe"/><path d="M199.753,124.599c-.504-2.269-1.649-3.14-3.69-3.438v-1.581c2.613.275,4.767,1.834,5.226,5.019h-1.536Z" fill="#fdfefe"/><path d="M198.232,123.491c0,.599-.486,1.085-1.085,1.085s-1.085-.486-1.085-1.085.486-1.085,1.085-1.085c.6,0,1.085.486,1.085,1.085Z" fill="#fdfefe"/></g></g><g><g><g><ellipse rx="8.227" ry="8.227" transform="matrix(.247-.969 0.969 0.247 216.050838 272.634034)" fill="#2352bb"/></g></g><g><g><polygon points="220,269.984 220,269.586 212,269.586 212,270.12 215.883,272.616" fill="#fff"/><path d="M215.939,273.326c-.055.032.018.048-.043.048s.066-.016.011-.048L212,270.934v4.652h8v-4.789l-4.061,2.529Z" fill="#fff"/></g></g></g><g><g><g><path d="M167.282,157.629c0,3.439-2.788,6.227-6.227,6.227s-6.227-2.788-6.227-6.227s2.788-6.228,6.227-6.228s6.227,2.788,6.227,6.228Z" fill="#2352bb"/></g></g><g><g><polygon points="164,155.627 164,155.586 158,155.586 158,155.73 160.911,157.619" fill="#fff"/><path d="M160.947,158.156c-.041.024.024.036-.023.036-.046,0,.062-.012.021-.036L158,156.346v3.24h6v-3.344l-3.053,1.914Z" fill="#fff"/></g></g></g><g><g><g><ellipse rx="8.227" ry="8.227" transform="matrix(.2306-.9731 0.9731 0.2306 334.280449 172.214036)" fill="#2352bb"/></g></g><path d="M338.577,173.27c.534-3.53-1.997-5.492-4.888-5.231c0,0-1.821-1.045-3.327.435-1.149,1.428-.313,2.978-.313,2.978-.226,2.804,1.446,5.434,5.207,5.015c0,0,1.642.889,2.879-.423c1.092-1.148.442-2.774.442-2.774Zm-1.697.335c-.058.495-.329.859-.72,1.137-.864.614-2.557.636-3.444.056-.257-.168-.48-.378-.624-.643-.216-.398-.419-.851.113-1.146.501-.278.743.093.961.489.403.733,1.154.974,1.884.621.281-.136.535-.327.51-.676-.022-.308-.243-.495-.529-.578-.465-.136-.933-.267-1.405-.378-.343-.08-.668-.204-.957-.395-.922-.609-.91-1.826.02-2.428.504-.326,1.074-.409,1.817-.412.701.03,1.528.144,2.002.984.179.318.215.697-.16.921-.352.209-.668.098-.887-.254-.037-.059-.072-.119-.112-.176-.378-.523-.993-.706-1.59-.466-.22.088-.432.208-.457.474-.029.315.201.461.449.54.705.222,1.432.38,2.122.639.801.301,1.104.873,1.007,1.691Z" fill="#fdfefe"/></g><g><g><g><g><ellipse rx="8.227" ry="8.227" transform="matrix(.7071-.7071 0.7071 0.7071 78.919164 262.451717)" fill="#2352bb"/></g></g></g><path d="M81.604,263.858c-.353,0-.677.123-.933.327l-3.091-1.68c.005-.048.007-.096.007-.145c0-.109-.012-.214-.034-.316l2.919-1.46c.275.316.679.518,1.132.518.828,0,1.5-.672,1.5-1.5s-.671-1.5-1.5-1.5-1.5.672-1.5,1.5c0,.031.003.061.005.091l-3.05,1.525c-.262-.223-.6-.358-.971-.358-.828,0-1.5.671-1.5,1.5c0,.828.672,1.5,1.5,1.5.433,0,.822-.185,1.096-.478l2.967,1.612c-.029.117-.046.238-.046.364c0,.828.671,1.5,1.5,1.5s1.5-.672,1.5-1.5c-.002-.828-.673-1.5-1.501-1.5Z" fill="#fff"/></g><g><circle r="20.429" transform="translate(216.096 311.49)" fill="#0f2e66"/><path d="M216.095,301.586c-5.244,0-9.495,4.25-9.495,9.495s4.251,9.497,9.495,9.497c5.245,0,9.497-4.252,9.497-9.497s-4.252-9.495-9.497-9.495Zm5.061,13.679c-.151.303-.419.497-.705.658-.355.2-.734.347-1.135.433-.376.08-.754.069-1.121-.026-.757-.192-1.487-.469-2.182-.824-.724-.37-1.372-.854-1.973-1.399-.688-.622-1.311-1.302-1.836-2.066-.427-.622-.767-1.287-1.001-2.004-.125-.383-.266-.762-.361-1.151-.127-.525-.049-1.044.146-1.543.127-.325.268-.641.486-.919.159-.198.338-.372.584-.45.27-.084.545-.146.819-.219.001.013.003.028.004.041.256-.069.405.064.518.265.282.504.564,1.005.85,1.504.087.155.188.301.28.454.17.28.16.452-.081.678-.262.247-.545.469-.812.71-.107.095-.216.198-.288.316-.046.077-.06.204-.028.286.079.205.185.398.294.59.343.603.745,1.162,1.232,1.657.349.353.726.676,1.145.945.339.215.683.424,1.036.616.272.148.417.105.626-.129.268-.299.534-.6.803-.902.043-.047.093-.086.141-.127.15-.123.309-.148.482-.047.391.228.784.454,1.175.68.326.189.65.383.977.57.127.073.183.181.18.323-.008.378-.088.742-.255,1.08Z" clip-rule="evenodd" fill="#fff" fill-rule="evenodd"/></g><g><circle r="20.429" transform="translate(177.096 279.49)" fill="#0f2e66"/><g><path d="M182.168,275.967c-.49-.598-1.085-1.068-1.782-1.413-.482-.238-.985-.406-1.514-.488-1.19-.184-2.325-.008-3.39.559-.812.432-1.473,1.036-1.98,1.806-.346.525-.591,1.094-.731,1.707-.111.485-.149.976-.124,1.474.025.487.118.961.275,1.421.163.481.394.928.69,1.342.039.055.039.102.018.162-.175.507-.347,1.014-.519,1.521-.039.113-.075.228-.119.363.1-.03.177-.051.252-.075.553-.176,1.108-.349,1.659-.532.114-.038.201-.018.298.042.521.327,1.085.546,1.686.674.598.128,1.201.148,1.807.074.557-.068,1.088-.224,1.596-.464.406-.192.785-.425,1.13-.71.48-.397.882-.864,1.206-1.4.354-.586.582-1.215.687-1.888.122-.784.071-1.557-.154-2.321-.205-.688-.539-1.304-.991-1.854Zm-1.045,5.582c-.088.206-.262.334-.437.458-.265.188-.569.285-.884.296-.223.008-.455-.043-.671-.11-.372-.116-.738-.255-1.1-.401-.384-.154-.725-.387-1.046-.646-.605-.49-1.094-1.082-1.53-1.723-.242-.356-.445-.728-.523-1.153-.106-.572.005-1.094.409-1.533.072-.078.148-.156.234-.218.134-.096.291-.099.449-.083.034.003.07.012.103.007.202-.029.308.084.378.252.158.38.31.762.478,1.137.074.166.038.306-.057.437-.103.142-.217.277-.332.411-.092.107-.114.19-.042.309.303.498.671.938,1.141,1.289.296.221.621.387.957.535.199.088.273.074.414-.095.146-.175.288-.354.43-.533.104-.132.193-.167.343-.098.433.2.862.408,1.294.611.082.039.119.103.12.19c0,.231-.039.452-.128.661Z" fill="#fff"/><path d="M177.887,269.994c-5.243,0-9.495,4.252-9.495,9.497s4.251,9.495,9.495,9.495c5.245,0,9.497-4.25,9.497-9.495s-4.253-9.497-9.497-9.497Zm6.506,9.725c-.007.037-.017.074-.02.111-.037.418-.107.83-.224,1.233-.173.595-.426,1.152-.762,1.674-.415.643-.93,1.194-1.541,1.652-.569.426-1.193.747-1.872.963-.591.188-1.195.294-1.814.306-1.118.022-2.175-.225-3.167-.746-.038-.02-.095-.03-.134-.018-.521.162-1.041.33-1.562.495-.405.129-.811.254-1.216.384-.22.071-.437.148-.655.223-.014-.014-.028-.028-.042-.042.021-.046.046-.092.063-.139.064-.187.124-.374.187-.561.289-.851.578-1.702.87-2.552.028-.081.017-.145-.024-.214-.296-.496-.513-1.025-.655-1.585-.196-.773-.253-1.553-.155-2.347.139-1.118.546-2.126,1.22-3.024.514-.685,1.144-1.245,1.889-1.675.74-.428,1.53-.704,2.379-.811.147-.018.293-.04.439-.06.27,0,.54,0,.811,0c.147.02.293.041.44.06.978.122,1.875.462,2.696,1.002.582.383,1.087.85,1.515,1.402.659.85,1.08,1.803,1.25,2.865.033.204.057.41.085.615-.001.262-.001.525-.001.789Z" fill="#fff"/></g></g><g><circle r="20.429" transform="translate(317.096 303.49)" fill="#0f2e66"/><path d="M317.095,293.994c-5.243,0-9.495,4.25-9.495,9.495s4.251,9.497,9.495,9.497c5.245,0,9.497-4.252,9.497-9.497s-4.252-9.495-9.497-9.495Zm4.15,9.91c-.772,1.343-2.249,3.647-3.695,4.131-.79.264-1.6.133-2.068-.628-.444-.721-.525-1.621-.653-2.44-.137-.883-.282-1.875-.819-2.618-.564-.781-1.37-.716-2.204-.452.361-1.143,3.217-4.365,4.417-1.148.412,1.105.467,2.337.897,3.428.531,1.345,1.387-.079,1.76-.679.336-.541,1.213-1.871.441-2.427-.432-.311-1.207.081-1.672.132.644-2.263,2.243-2.545,3.392-2.314.736.148,1.142.652,1.297,1.419.243,1.192-.525,2.608-1.093,3.596Z" fill="#fff"/></g><g><circle r="20.429" transform="translate(247.096 169.49)" fill="#0f2e66"/><path d="M247.33,159.563c-5.243,0-9.495,4.25-9.495,9.495s4.251,9.497,9.495,9.497c5.245,0,9.497-4.252,9.497-9.497s-4.253-9.495-9.497-9.495Zm5.363,9.715c-.325,2.311-3.106,4.392-6.864,3.759c0,0-.447.763-2.112,1.033.828-1.331.679-1.628.679-1.628-1.525-.911-2.288-3.013-1.848-4.697.48-1.837,2.219-3.36,5.722-3.226c3.493.372,4.721,2.603,4.423,4.759Z" fill="#fff"/></g><g><circle r="20.429" transform="translate(222.096 238.49)" fill="#0f2e66"/><g><path d="M223.53,240.42l-3.233.006c-.446.001-.808.304-.807.639s.363.637.809.636l3.233-.006c.446-.001.808-.304.807-.639c0-.335-.362-.637-.809-.636Z" fill="#fff"/><path d="M219.991,237.876l2.025-.004c.28-.001.506-.304.505-.638-.001-.335-.228-.637-.508-.637l-2.025.004c-.28.001-.506.304-.505.639.001.334.228.636.508.636Z" fill="#fff"/><path d="M222.169,229.919c-5.243,0-9.495,4.25-9.495,9.495s4.251,9.497,9.495,9.497c5.245,0,9.497-4.252,9.497-9.497.001-5.244-4.252-9.495-9.497-9.495Zm.31,14.377c-.159,0-.317,0-.476-.005-.688.001-1.378.041-2.063-.004-1.772-.117-3.061-1.378-3.158-3.162-.072-1.319-.077-2.647-.007-3.966.097-1.846,1.27-3.041,3.669-3.184c4.9-.292,4.562,2.588,4.743,3.694.387,0,.775-.022,1.162-.013.123.003.497.276.459.567l.017,3.135c.007,2.304-.705,2.94-4.346,2.938Z" fill="#fff"/></g></g><g><circle r="20.429" transform="translate(137.096 180.49)" fill="#0f2e66"/><path d="M137.415,170.994c-5.243,0-9.495,4.25-9.495,9.495s4.251,9.497,9.495,9.497c5.245,0,9.497-4.252,9.497-9.497s-4.252-9.495-9.497-9.495Zm5.904,11.934c-1.442,3.459-5.123,4.552-7.783,3.659.123-.222.243-.444.368-.664.314-.553.461-1.163.614-1.772.061-.24.126-.478.19-.719.629.751,1.424.822,2.286.589.751-.203,1.327-.663,1.754-1.303.666-1.002.9-2.113.669-3.286-.269-1.367-1.13-2.274-2.431-2.718-1.315-.449-2.616-.33-3.827.363-1.057.605-1.637,1.556-1.793,2.76-.118.915.09,1.75.659,2.485.16.206.358.371.594.485.139.068.192.04.231-.113.055-.217.116-.434.159-.653.014-.069.002-.164-.037-.22-.543-.788-.614-1.635-.264-2.503.4-.994,1.169-1.548,2.225-1.696.663-.093,1.305-.012,1.893.329.724.421,1.119,1.065,1.206,1.889.081.773-.033,1.519-.403,2.211-.268.503-.651.881-1.226,1.021-.217.053-.436.063-.653,0-.503-.146-.776-.611-.641-1.128.128-.49.291-.971.413-1.462.063-.255.112-.527.093-.785-.061-.808-.834-.908-1.281-.624-.394.25-.57.637-.642,1.08-.067.415-.009.819.134,1.213.019.054.017.122.004.18-.238,1.023-.482,2.045-.72,3.068-.116.496-.091.999-.055,1.502.007.102.016.204.025.311-2.668-.975-4.792-4.124-3.816-7.653.973-3.521,4.682-5.519,8.199-4.335c3.509,1.181,5.28,5.074,3.856,8.489Z" fill="#fff"/></g><g><circle r="16.429" transform="translate(355.096 267.49)" fill="#0f2e66"/><path d="M355.825,259.853c-4.217,0-7.636,3.418-7.636,7.636s3.419,7.638,7.636,7.638c4.218,0,7.638-3.42,7.638-7.638s-3.42-7.636-7.638-7.636Zm-.73,12.166c-.432-.161-1.217-.769-1.211-1.565l-.01-3.868h-1.874v-1.248c1-.477,2.618-1.752,2.599-2.752h1.29c0,0-.011,1.961,0,2.488l2.462.027-.01,1.511-2.462.023.01,3.297c.228.844,1.017.721,1.519.656.412-.053,1.113-.351,1.113-.351l.009,1.553c-.372.116-2.105.726-3.435.229Z" fill="#fdfefe"/></g><path d="M183.894,130.962c-7.381,0-13.365,5.983-13.365,13.365s5.984,13.368,13.365,13.368c7.382,0,13.368-5.986,13.368-13.368s-5.985-13.365-13.368-13.365Zm7.124,19.254c-.212.427-.589.7-.992.927-.5.282-1.033.488-1.598.609-.529.112-1.062.097-1.578-.036-1.066-.27-2.093-.66-3.072-1.16-1.019-.521-1.931-1.203-2.778-1.969-.968-.876-1.845-1.833-2.584-2.908-.601-.876-1.08-1.812-1.409-2.82-.176-.539-.374-1.072-.507-1.621-.179-.739-.07-1.469.206-2.172.179-.457.377-.903.685-1.293.224-.279.476-.524.822-.633.38-.118.768-.206,1.153-.309.002.018.005.039.006.057.36-.097.57.091.729.373.397.709.794,1.415,1.197,2.117.123.218.265.424.394.639.239.394.226.636-.113.954-.368.348-.767.66-1.144,1-.15.133-.305.279-.406.445-.065.109-.085.288-.039.403.111.288.26.561.413.83.483.848,1.048,1.636,1.734,2.332.491.497,1.022.951,1.612,1.33.477.303.962.597,1.458.866.383.209.588.148.882-.182.377-.421.751-.845,1.13-1.269.061-.067.13-.121.198-.179.211-.173.435-.209.678-.067.55.321,1.104.639,1.654.957.459.266.915.539,1.375.803.179.103.258.255.253.454-.011.534-.123,1.046-.359,1.522Z" clip-rule="evenodd" fill="#fff" fill-rule="evenodd"/><g><path d="M239.757,202.829c-.445-.542-.985-.969-1.617-1.282-.438-.216-.894-.369-1.374-.443-1.079-.167-2.109-.007-3.076.507-.737.392-1.336.941-1.796,1.638-.314.476-.536.992-.664,1.549-.101.441-.136.886-.113,1.338.023.442.107.872.249,1.29.148.436.358.842.626,1.218.036.05.036.092.017.147-.159.459-.315.92-.471,1.38-.035.103-.068.207-.108.329.091-.027.16-.046.229-.068.502-.16,1.005-.317,1.505-.482.104-.034.182-.017.27.038.472.297.984.495,1.53.612.543.116,1.09.134,1.639.067.505-.062.988-.203,1.449-.421.368-.174.712-.386,1.025-.645.436-.361.801-.784,1.094-1.27.321-.531.528-1.103.623-1.713.111-.711.064-1.413-.14-2.106-.184-.625-.488-1.184-.897-1.683Zm-.949,5.065c-.08.187-.237.303-.396.416-.24.17-.516.258-.802.269-.202.007-.413-.039-.609-.1-.338-.105-.67-.232-.998-.364-.349-.14-.658-.351-.949-.587-.549-.445-.992-.981-1.388-1.563-.219-.323-.403-.661-.475-1.046-.096-.519.005-.993.371-1.391.065-.071.134-.142.212-.197.121-.087.264-.09.408-.075.031.002.063.011.094.006.184-.026.279.076.343.229.143.345.281.691.433,1.032.067.151.035.277-.052.397-.094.129-.197.252-.301.373-.083.097-.104.172-.038.28.275.451.609.851,1.035,1.17.268.201.564.351.868.486.18.08.247.067.376-.086.133-.159.262-.321.39-.483.095-.12.175-.151.311-.089.393.181.783.37,1.174.555.074.035.108.093.109.172c0,.206-.035.406-.116.596Z" fill="#fff"/><path d="M235.872,197.409c-4.758,0-8.615,3.859-8.615,8.617c0,4.759,3.857,8.615,8.615,8.615c4.759,0,8.617-3.857,8.617-8.615s-3.858-8.617-8.617-8.617Zm5.903,8.824c-.006.034-.016.067-.019.101-.034.379-.097.753-.204,1.119-.157.539-.387,1.046-.691,1.518-.377.584-.844,1.084-1.399,1.499-.516.386-1.083.678-1.698.874-.536.171-1.085.267-1.646.278-1.015.02-1.974-.204-2.873-.677-.035-.018-.086-.027-.122-.016-.473.147-.945.3-1.417.45-.368.117-.736.23-1.104.348-.199.064-.396.134-.595.202-.012-.013-.025-.025-.038-.038.019-.042.042-.083.057-.127.058-.169.113-.34.17-.509.262-.772.524-1.545.79-2.316.025-.074.016-.131-.022-.194-.269-.45-.466-.93-.594-1.438-.178-.701-.23-1.409-.14-2.13.126-1.015.495-1.929,1.107-2.744.467-.621,1.038-1.129,1.714-1.52.672-.388,1.389-.639,2.159-.736.133-.017.266-.036.399-.055.245,0,.49,0,.735,0c.133.018.266.038.399.054.887.11,1.701.419,2.446.909.528.347.986.771,1.374,1.272.598.771.98,1.636,1.134,2.6.03.185.051.372.077.558.001.24.001.479.001.718Z" fill="#fff"/></g><g><path d="M220.814,136.707c-.494,0-.989,0-1.483,0-.531,0-1.062,0-1.593,0-.182,0-.183.003-.183.185c0,.918,0,1.839,0,2.757c0,.191.001.191.199.191.977.003,1.952,0,2.929.003.123,0,.244-.009.365-.027.527-.076.901-.339,1.06-.866.106-.352.1-.709.051-1.066-.1-.738-.606-1.177-1.345-1.177Z" clip-rule="evenodd" fill="#fff" fill-rule="evenodd"/><path d="M230.5,135.086c-.454-.212-.933-.218-1.412-.103-.869.209-1.313.957-1.467,1.642-.023.1.039.085.095.085.604,0,1.207,0,1.811,0c.026,0,.05,0,.074,0c.576,0,1.151-.003,1.727,0c.085.003.12-.021.105-.106-.012-.076-.012-.155-.027-.23-.111-.564-.361-1.034-.906-1.288Z" clip-rule="evenodd" fill="#fff" fill-rule="evenodd"/><path d="M217.689,134.917c1.053-.003,2.107,0,3.161-.003.442-.003.721-.218.845-.642.097-.324.099-.66.076-.994-.012-.161-.047-.318-.118-.46-.161-.321-.404-.509-.782-.506-.515.009-1.03.003-1.545.003v-.003c-.544,0-1.086.003-1.63,0-.103-.003-.144.024-.142.133.003.782.003,1.56,0,2.342.001.102.034.13.135.13Z" clip-rule="evenodd" fill="#fff" fill-rule="evenodd"/><path d="M224.298,122.833c-7.381,0-13.365,5.986-13.365,13.368s5.984,13.365,13.365,13.365c7.382,0,13.368-5.983,13.368-13.365s-5.986-13.368-13.368-13.368Zm2.797,8.252c-.002-.112.033-.148.147-.148c1.504.003,3.007.003,4.509,0c.117,0,.156.036.155.155-.006.367-.006.733,0,1.102.001.115-.036.154-.155.154-.751-.006-1.502-.003-2.254-.003-.748,0-1.495-.003-2.243.003-.124,0-.162-.039-.16-.16.007-.37.006-.737.001-1.103Zm-2.746,8.954c-.336.733-.907,1.218-1.639,1.521-.556.233-1.139.345-1.742.345-1.963,0-3.924,0-5.886,0-.183,0-.185,0-.185-.182c0-3.762,0-7.521,0-11.281c0-.191.002-.194.191-.194c2.058.003,4.12-.012,6.178.012.833.009,1.589.291,2.188.897.457.464.689,1.033.771,1.672.062.475.053.945-.1,1.402-.238.706-.744,1.121-1.455,1.299-.02.006-.039.009-.053.033.887.064,1.471.524,1.789,1.333.238.603.288,1.233.242,1.875-.029.444-.114.868-.299,1.268Zm9.176-1.766c-.96,0-1.921,0-2.881,0-.948,0-1.896,0-2.844,0-.179,0-.177-.03-.167.17.027.524.173.997.573,1.363.283.26.624.4.998.46.559.091,1.106.051,1.63-.182.394-.173.638-.473.714-.9.017-.097.059-.13.153-.13.589.003,1.177.003,1.766,0c.121,0,.146.055.139.158-.065,1.278-.713,2.129-1.89,2.593-.477.188-.977.285-1.489.324-.804.061-1.601.018-2.373-.23-1.303-.421-2.139-1.306-2.51-2.614-.451-1.587-.208-3.084.724-4.447.542-.794,1.322-1.266,2.251-1.481.885-.206,1.775-.215,2.655.021c1.251.336,2.037,1.163,2.446,2.375.264.779.303,1.584.271,2.396-.006.118-.075.124-.166.124Z" clip-rule="evenodd" fill="#fff" fill-rule="evenodd"/></g><path d="M392.354,197.638c-3.515,0-6.366,2.85-6.366,6.366s2.85,6.367,6.366,6.367s6.367-2.851,6.367-6.367-2.851-6.366-6.367-6.366Zm2.782,6.644c-.517.9-1.508,2.445-2.477,2.769-.529.177-1.073.089-1.387-.421-.298-.484-.352-1.087-.438-1.635-.092-.592-.189-1.257-.549-1.755-.378-.523-.919-.48-1.478-.303.242-.766,2.156-2.927,2.961-.77.276.741.313,1.567.602,2.298.356.902.93-.053,1.18-.455.225-.363.813-1.255.296-1.628-.29-.209-.81.054-1.121.089.432-1.517,1.504-1.707,2.274-1.551.493.1.766.437.87.951.163.8-.353,1.749-.733,2.411Z" fill="#fff"/><path d="M281.136,244.548c-4.252,0-7.699,3.446-7.699,7.699s3.447,7.701,7.699,7.701c4.253,0,7.701-3.448,7.701-7.701s-3.448-7.699-7.701-7.699Zm3.365,8.035c-.626,1.089-1.824,2.957-2.996,3.349-.64.214-1.297.108-1.677-.509-.36-.585-.426-1.315-.529-1.978-.112-.716-.229-1.52-.664-2.123-.457-.633-1.111-.58-1.787-.367.293-.927,2.608-3.539,3.582-.931.334.896.378,1.895.728,2.779.431,1.091,1.125-.064,1.427-.55.272-.439.984-1.517.358-1.968-.35-.252-.979.066-1.356.107.522-1.835,1.819-2.064,2.75-1.876.597.12.926.529,1.052,1.15.196.968-.428,2.117-.888,2.917Z" fill="#fff"/><path d="M406.505,302.323c-7.381,0-13.365,5.983-13.365,13.365s5.984,13.368,13.365,13.368c7.382,0,13.368-5.986,13.368-13.368s-5.986-13.365-13.368-13.365Zm7.549,13.675c-.458,3.253-4.372,6.182-9.661,5.292c0,0-.628,1.073-2.972,1.454c1.166-1.873.956-2.292.956-2.292-2.147-1.283-3.22-4.241-2.6-6.612.676-2.585,3.124-4.729,8.054-4.54c4.914.522,6.642,3.664,6.223,6.698Z" fill="#fff"/><g><path d="M166.606,318.636l-4.551.008c-.628.001-1.137.428-1.136.9.001.471.511.897,1.139.895l4.551-.008c.628-.001,1.137-.428,1.136-.899-.001-.472-.511-.897-1.139-.896Z" fill="#fff"/><path d="M161.623,315.055l2.851-.005c.394-.001.712-.428.711-.899s-.321-.897-.714-.896l-2.851.005c-.394.001-.712.428-.711.899s.321.897.714.896Z" fill="#fff"/><path d="M164.69,303.855c-7.381,0-13.365,5.983-13.365,13.365s5.984,13.368,13.365,13.368c7.382,0,13.368-5.986,13.368-13.368s-5.986-13.365-13.368-13.365Zm.436,20.237c-.223,0-.447.001-.67-.008-.968.002-1.94.058-2.904-.005-2.494-.165-4.308-1.94-4.445-4.451-.101-1.856-.108-3.726-.01-5.583.137-2.599,1.788-4.28,5.164-4.481c6.898-.412,6.421,3.643,6.676,5.199.545,0,1.092-.031,1.636-.018.173.004.699.388.646.798l.024,4.412c.011,3.244-.992,4.14-6.117,4.137Z" fill="#fff"/></g><g><path d="M154.605,137.722l-3.757.007c-.519.001-.938.354-.938.742.001.389.422.74.94.739l3.757-.007c.519-.001.939-.354.938-.742c0-.388-.422-.74-.94-.739Z" fill="#fff"/><path d="M150.492,134.767l2.353-.004c.325-.001.588-.353.587-.742s-.265-.74-.59-.74l-2.353.004c-.325.001-.588.353-.587.742s.265.74.59.74Z" fill="#fff"/><path d="M153.024,125.522c-6.092,0-11.032,4.938-11.032,11.032s4.94,11.034,11.032,11.034c6.094,0,11.035-4.941,11.035-11.034-.001-6.094-4.942-11.032-11.035-11.032Zm.36,16.704c-.184,0-.369.001-.553-.006-.799.001-1.601.048-2.397-.005-2.058-.136-3.556-1.601-3.669-3.674-.083-1.532-.089-3.076-.008-4.608.113-2.145,1.476-3.533,4.262-3.699c5.693-.34,5.3,3.007,5.511,4.292.45,0,.901-.025,1.35-.015.143.003.577.321.533.659l.02,3.642c.008,2.677-.819,3.417-5.049,3.414Z" fill="#fff"/></g><path d="M105.699,235.639c-7.381,0-13.365,5.983-13.365,13.365s5.984,13.368,13.365,13.368c7.382,0,13.368-5.986,13.368-13.368s-5.985-13.365-13.368-13.365Zm8.31,16.798c-2.03,4.868-7.211,6.407-10.956,5.151.173-.312.343-.625.518-.935.441-.778.648-1.637.864-2.494.085-.337.178-.673.267-1.013.885,1.057,2.004,1.157,3.217.829c1.057-.286,1.868-.933,2.468-1.834.938-1.41,1.267-2.975.942-4.625-.379-1.924-1.59-3.2-3.422-3.826-1.852-.633-3.683-.465-5.386.511-1.487.852-2.304,2.19-2.523,3.885-.167,1.288.127,2.464.927,3.499.225.291.504.522.836.683.196.095.27.057.325-.159.078-.306.163-.61.224-.92.019-.097.002-.23-.052-.31-.765-1.109-.864-2.301-.372-3.524.563-1.399,1.646-2.18,3.132-2.388.933-.131,1.837-.017,2.664.464c1.02.592,1.575,1.499,1.697,2.659.115,1.087-.047,2.138-.567,3.112-.378.707-.917,1.241-1.726,1.437-.305.074-.614.089-.92,0-.708-.205-1.092-.86-.902-1.588.18-.69.41-1.367.581-2.058.089-.358.158-.741.13-1.105-.086-1.137-1.174-1.278-1.804-.878-.554.352-.803.897-.903,1.52-.094.585-.013,1.153.188,1.708.027.075.024.173.005.253-.336,1.44-.679,2.878-1.014,4.318-.163.698-.127,1.406-.078,2.114.01.144.023.288.035.438-3.756-1.372-6.745-5.806-5.372-10.772c1.37-4.956,6.59-7.769,11.54-6.103c4.949,1.664,7.442,7.144,5.437,11.951Z" fill="#fff"/><path d="M251.814,316.76c-7.381,0-13.365,5.983-13.365,13.365s5.984,13.368,13.365,13.368c7.382,0,13.368-5.986,13.368-13.368s-5.986-13.365-13.368-13.365Zm-1.279,21.294c-.757-.283-2.131-.826-2.12-2.219l-.017-6.25h-3.398v-3.225c2-.834,4.701-2.775,4.667-3.775h2.259c0,0-.019,2.912,0,3.833l4.309-.213-.017,2.515-4.309-.025.017,5.739c.4,1.477,1.781,1.246,2.658,1.132.721-.094,1.948-.623,1.948-.623l.015,2.714c-.651.204-3.683,1.266-6.012.397Z" fill="#fdfefe"/><path d="M72.712,279.292c-3.699,0-6.699,2.999-6.699,6.699s3,6.701,6.699,6.701c3.7,0,6.701-3,6.701-6.701c0-3.7-3.001-6.699-6.701-6.699Zm-.641,10.673c-.379-.142-1.068-.481-1.063-1.179l-.009-3.2h-1v-1.482c1-.418,1.653-1.518,1.636-1.518h1.132c0,0-.009,1.272,0,1.734l2.16-.2-.009,1.214-2.16-.036.009,2.865c.2.74.893.619,1.332.561.362-.047.977-.315.977-.315l.008,1.359c-.326.102-1.846.633-3.013.197Z" fill="#fdfefe"/><path d="M102.978,322.89C77.25,322,56.667,300.864,56.667,274.919c0-26.51,21.49-48,48-48c9.294,0,17.971,2.641,25.321,7.214" fill="none" stroke="#2352bb" stroke-width="5" stroke-miterlimit="10"/><path d="M357.708,195.658c8.359-4.715,18.011-7.406,28.292-7.406c31.848,0,57.667,25.818,57.667,57.667c0,13.536-4.664,25.983-12.472,35.821" fill="none" stroke="#2352bb" stroke-width="5" stroke-miterlimit="10"/><path d="M117.098,227.539c-5.402-11.174-8.431-23.709-8.431-36.953c0-46.944,38.056-85,85-85s85,38.056,85,85c0,4.721-.385,9.353-1.125,13.864" fill="none" stroke="#2352bb" stroke-width="5" stroke-miterlimit="10"/><path d="M275.448,166.538c7.745-12.193,21.371-20.285,36.886-20.285c24.117,0,43.667,19.55,43.667,43.667" fill="none" stroke="#2352bb" stroke-width="5" stroke-miterlimit="10"/><g><path d="M418.605,221.201l-3.955.007c-.546.001-.988.372-.987.782.001.409.444.779.99.778l3.955-.007c.546-.001.988-.372.987-.782-.001-.409-.444-.779-.99-.778Z" fill="#fff"/><path d="M414.275,218.089l2.478-.004c.342-.001.619-.372.618-.781-.001-.41-.279-.779-.621-.779l-2.478.004c-.342.001-.619.372-.618.781s.279.779.621.779Z" fill="#fff"/><path d="M416.94,208.355c-6.414,0-11.615,5.199-11.615,11.615s5.201,11.618,11.615,11.618c6.416,0,11.618-5.202,11.618-11.618c0-6.415-5.202-11.615-11.618-11.615Zm.379,17.587c-.194,0-.388.001-.583-.007-.841.001-1.686.05-2.523-.005-2.167-.143-3.744-1.686-3.863-3.868-.088-1.613-.094-3.239-.009-4.852.119-2.258,1.554-3.719,4.488-3.895c5.995-.358,5.58,3.166,5.802,4.518.474,0,.949-.027,1.422-.016.15.004.608.338.562.693l.021,3.835c.009,2.821-.863,3.6-5.317,3.597Z" fill="#fff"/></g><ellipse rx="28" ry="28" transform="matrix(.7919-.6106 0.6106 0.7919 309.625572 358.303631)" fill="none" stroke="#2352bb" stroke-width="4.5532" stroke-linecap="round" stroke-linejoin="round" stroke-miterlimit="10"/><circle r="15" transform="translate(350.862 391.08)" fill="none" stroke="#2352bb" stroke-width="4.5532" stroke-linecap="round" stroke-linejoin="round" stroke-miterlimit="10"/></g></svg>
